# xmcd
#
# Track frame offsets:
#	150
#	22015
#	37443
#	57697
#	81315
#	101720
#	119003
#	140842
#	159945
#	181603
#	207695
#	226101
#	248617
#	271115
#
# Disc length: 3916 seconds
#
# Revision: 2
# Processed by: cddbd v1.5.2PL0 Copyright (c) Steve Scherf et al.
# Submitted via: audiograbber 1.83.01
#
DISCID=cd0f4a0e
DTITLE=Bob Dylan - The Bootleg Series Vol. 13 1979-1981 Deluxe Edition: Trouble
DTITLE=No More [CD 8) - Live in London [June 27, 1981]
DYEAR=2017
DGENRE=Rock
TTITLE0=Slow Train [live]
TTITLE1=Let's Begin [live]
TTITLE2=Lenny Bruce [live]
TTITLE3=Mr. Tambourine Man [live]
TTITLE4=Solid Rock [live]
TTITLE5=Just Like A Woman [live]
TTITLE6=Watered-Down Love [live]
TTITLE7=Forever Young [live]
TTITLE8=When You Gonna Wake Up? [live]
TTITLE9=In The Garden [live]
TTITLE10=Band Introductions [live]
TTITLE11=Blowin' In The Wind [live]
TTITLE12=It's All Over Now, Baby Blue [live]
TTITLE13=Knockin' On Heaven's Door [live]
EXTD=
EXTT0=
EXTT1=
EXTT2=
EXTT3=
EXTT4=
EXTT5=
EXTT6=
EXTT7=
EXTT8=
EXTT9=
EXTT10=
EXTT11=
EXTT12=
EXTT13=
PLAYORDER=
